:SAMPLES-PER-SECOND 30
:FULLY-SPECIFIED
:DEGREES
311
root  -2.60591 40.8849 -0.533651 -3.16121 -79.6654 4.99402
RightUpLeg  1.46719 -3.15346 -1.73616
RightLeg  -1.57378 -25.2089 2.494
RightFoot  -1.1798 -0.262322 2.85602
RightToes  -3.13006e-008 1.75238e-005 3.56266e-009
Spine  1.03477 3.77761 5.7863
Spine1  2.83229 5.46176 -7.8301
HEad  -21.2716 -11.4528 3.37149
LeftShoulder1  1.38973 -2.94548 -14.6806
LeftArm  -33.9705 -2.0343 -26.6609
LeftForeArm  158.791 -62.1562 -160.209
LeftHand  -0.807843 -5.6911 8.74401
RightShoulder  1.5375 3.85904 14.0349
RightArm  -56.1502 32.4037 20.2417
RightForeArm  131.798 72.6653 143.096
RightHand  -1.54486 10.0434 -11.9562
LeftUpLeg  -2.71582 0.466496 2.38198
LeftLeg  1.92577 4.55645 -0.596502
LeftFoot  -0.575055 0.391827 -4.12155
LeftToes  4.78685e-008 1.46778e-008 1.34523e-009
312
root  -2.65344 40.8836 -0.663218 -1.92034 -79.1371 3.7365
RightUpLeg  1.7449 -2.7319 -1.16683
RightLeg  -2.07501 -26.2738 2.58662
RightFoot  -1.04322 -0.242102 2.60673
RightToes  -3.13006e-008 1.75238e-005 3.56266e-009
Spine  1.23124 3.8219 5.70432
Spine1  1.67611 5.37883 -7.64966
HEad  -17.9788 -11.0639 3.29461
LeftShoulder1  1.35956 -3.05039 -13.7847
LeftArm  -40.4204 -7.48638 -25.41
LeftForeArm  157.748 -64.4387 -158.171
LeftHand  -0.977534 -6.0692 10.2277
RightShoulder  1.38965 3.50236 12.8752
RightArm  -60.8491 34.1145 16.6075
RightForeArm  132.782 72.9162 142.695
RightHand  -1.42205 10.6221 -10.6578
LeftUpLeg  -2.8393 0.408198 2.64509
LeftLeg  2.08985 3.96565 -0.271788
LeftFoot  -0.638492 0.403846 -4.27053
LeftToes  4.78685e-008 1.46778e-008 1.34523e-009
313
root  -2.75452 40.8835 -0.796596 -0.295657 -78.0802 2.20331
RightUpLeg  2.13122 -2.2927 -0.512041
RightLeg  -2.83146 -27.8895 2.88535
RightFoot  -0.968781 -0.213242 2.27525
RightToes  -3.13006e-008 1.75238e-005 3.56266e-009
Spine  1.11874 3.3037 5.00168
Spine1  0.250553 4.64231 -7.15456
HEad  -14.0325 -9.63139 3.50924
LeftShoulder1  1.23017 -2.7897 -12.4783
LeftArm  -47.1312 -13.6548 -24.6093
LeftForeArm  152.713 -66.6716 -155.338
LeftHand  -0.901324 -4.60311 10.7344
RightShoulder  1.31069 3.43492 11.7921
RightArm  -64.9899 34.8992 13.1645
RightForeArm  130.21 72.6481 142.877
RightHand  -1.41792 10.4233 -10.7508
LeftUpLeg  -3.00326 0.721986 3.16732
LeftLeg  2.08984 2.48623 -0.291654
LeftFoot  -0.653863 0.439488 -4.65591
LeftToes  4.78685e-008 1.46778e-008 1.34523e-009
314
root  -2.90042 40.8833 -0.939421 -0.146663 -76.8287 2.17841
RightUpLeg  2.45741 -2.21318 -0.230841
RightLeg  -3.27834 -29.2728 3.19623
RightFoot  -1.14227 -0.192597 2.06952
RightToes  -3.13006e-008 1.75238e-005 3.56266e-009
Spine  0.831652 2.61276 3.73776
Spine1  -1.30065 3.76833 -6.71419
HEad  -9.92118 -8.61669 4.2086
LeftShoulder1  1.1217 -2.64969 -11.0007
LeftArm  -53.0005 -20.8946 -23.9465
LeftForeArm  143.292 -69.4069 -150.654
LeftHand  -0.879722 -3.83448 11.312
RightShoulder  1.07062 2.77995 9.75651
RightArm  -68.8953 35.3407 11.4197
RightForeArm  123.275 72.0746 143.054
RightHand  -1.26692 10.4534 -9.64431
LeftUpLeg  -3.04611 0.908894 3.44594
LeftLeg  1.87868 1.02103 -0.399911
LeftFoot  -0.552197 0.491246 -5.16578
LeftToes  4.78685e-008 1.46778e-008 1.34523e-009
315
root  -3.05428 40.8779 -1.10338 -1.19069 -75.5375 3.27107
RightUpLeg  2.65056 -2.30103 -0.193918
RightLeg  -3.1245 -30.4207 3.15296
RightFoot  -1.56593 -0.173771 1.90637
RightToes  -3.13006e-008 1.75238e-005 3.56266e-009
Spine  0.745101 1.94439 2.52184
Spine1  -2.8803 3.1116 -7.23049
HEad  -5.60626 -8.5212 5.23014
LeftShoulder1  0.996957 -2.48831 -9.25916
LeftArm  -57.9803 -30.0212 -23.9245
LeftForeArm  132.544 -72.5128 -143.529
LeftHand  -0.785431 -2.51759 11.7487
RightShoulder  0.863774 1.97982 8.28669
RightArm  -72.7326 35.0466 9.23001
RightForeArm  119.103 71.9144 142.782
RightHand  -1.29304 10.5686 -9.78262
LeftUpLeg  -2.87399 0.98583 3.5085
LeftLeg  1.46267 -0.388129 -0.576279
LeftFoot  -0.396554 0.546937 -5.68231
LeftToes  4.78685e-008 1.46778e-008 1.34523e-009
316
root  -3.21823 40.8798 -1.24192 -1.50179 -74.2425 3.27108
RightUpLeg  3.4956 -2.24364 0.0881521
RightLeg  -3.62531 -31.7946 3.43573
RightFoot  -1.79601 -0.156922 1.73326
RightToes  -3.13006e-008 1.75238e-005 3.56266e-009
Spine  0.531843 1.30429 1.8037
Spine1  -3.63409 2.56869 -8.11561
HEad  -1.51896 -8.58072 5.97204
LeftShoulder1  0.973009 -2.77642 -7.95769
LeftArm  -62.266 -38.3369 -23.3029
LeftForeArm  123.139 -75.494 -133.831
LeftHand  -0.824655 -1.71316 13.6087
RightShoulder  0.616034 0.857498 6.46559
RightArm  -76.6813 34.8023 7.71382
RightForeArm  117.958 72.2478 141.87
RightHand  -1.22947 9.18864 -10.1332
LeftUpLeg  -2.3225 1.14192 3.71091
LeftLeg  1.02731 -1.86015 -0.575788
LeftFoot  -0.302501 0.590909 -6.09461
LeftToes  4.78685e-008 1.46778e-008 1.34523e-009
317
root  -3.37067 40.8683 -1.34517 -1.78775 -73.5974 3.19311
RightUpLeg  4.177 -2.34486 0.25026
RightLeg  -3.71544 -32.301 3.61931
RightFoot  -2.11111 -0.153573 1.71795
RightToes  -3.13006e-008 1.75238e-005 3.56266e-009
Spine  0.493878 0.76059 1.41482
Spine1  -4.59368 2.11649 -9.14284
HEad  2.5512 -8.10185 6.2804
LeftShoulder1  0.883771 -2.71613 -6.52415
LeftArm  -64.3877 -45.1838 -24.6725
LeftForeArm  115.242 -77.4127 -124.033
LeftHand  -0.913644 -1.45214 15.6502
RightShoulder  0.479796 0.262223 4.94717
RightArm  -79.4002 34.4841 6.31791
RightForeArm  117.779 72.7815 140.586
RightHand  -1.21879 10.1905 -9.43048
LeftUpLeg  -1.80409 1.16405 3.83003
LeftLeg  0.970067 -2.49423 -0.422132
LeftFoot  -0.468629 0.592476 -6.19335
LeftToes  4.78685e-008 1.46778e-008 1.34523e-009
318
root  -3.51193 40.8513 -1.41881 -1.69903 -73.6482 2.47242
RightUpLeg  5.01823 -2.40011 0.528771
RightLeg  -3.67002 -32.1831 3.75828
RightFoot  -2.4138 -0.14265 1.59461
RightToes  -3.13006e-008 1.75238e-005 3.56266e-009
Spine  -0.0797834 0.474881 1.61359
Spine1  -4.32433 2.04015 -10.5008
HEad  5.56173 -8.06783 6.00756
LeftShoulder1  0.815783 -2.64451 -5.4691
LeftArm  -64.9603 -50.5288 -26.8774
LeftForeArm  109.11 -78.4409 -116.127
LeftHand  -0.910346 -0.701399 17.4151
RightShoulder  0.483314 0.448239 4.3042
RightArm  -81.7321 33.8411 4.32278
RightForeArm  116.607 73.1258 139.549
RightHand  -1.30987 10.2502 -10.0892
LeftUpLeg  -1.12737 1.23172 4.05967
LeftLeg  1.346 -2.50811 -0.097005
LeftFoot  -0.968479 0.571198 -6.22755
LeftToes  4.78685e-008 1.46778e-008 1.34523e-009
319
root  -3.62619 40.8306 -1.44125 -1.63829 -74.3764 1.45687
RightUpLeg  5.98597 -2.48935 0.760942
RightLeg  -3.2228 -31.3516 3.64497
RightFoot  -2.78967 -0.145794 1.69646
RightToes  -3.13006e-008 1.75238e-005 3.56266e-009
Spine  -1.02878 0.455496 1.79054
Spine1  -2.57576 2.27605 -11.1191
HEad  7.3263 -7.98983 5.22085
LeftShoulder1  0.821348 -2.49479 -5.94138
LeftArm  -64.4353 -54.5541 -29.0283
LeftForeArm  107.944 -78.7606 -113.395
LeftHand  -0.928743 -0.703454 17.7552
RightShoulder  0.414178 0.0704574 3.60541
RightArm  -83.0823 33.8148 3.80053
RightForeArm  118.323 72.613 141.075
RightHand  -1.27502 8.45626 -11.014
LeftUpLeg  -0.18048 1.33354 4.29493
LeftLeg  2.07268 -1.87795 0.293128
LeftFoot  -1.71103 0.537857 -6.25905
LeftToes  4.78685e-008 1.46778e-008 1.34523e-009
320
root  -3.70915 40.8004 -1.415 -2.2044 -75.9768 0.529789
RightUpLeg  7.15785 -2.81864 0.721528
RightLeg  -1.99523 -29.4303 3.1392
RightFoot  -3.41137 -0.150429 1.83271
RightToes  -3.13006e-008 1.75238e-005 3.56266e-009
Spine  -2.24803 0.664783 1.97802
Spine1  0.396643 2.82877 -11.4477
HEad  7.83261 -7.49068 4.0699
LeftShoulder1  0.885576 -2.77666 -6.39866
LeftArm  -63.5576 -55.6892 -30.5092
LeftForeArm  114.332 -78.1583 -119.582
LeftHand  -1.10088 -1.60451 18.3618
RightShoulder  0.434085 0.0590693 4.28845
RightArm  -82.9911 33.9126 3.90578
RightForeArm  123.883 71.3432 144.641
RightHand  -1.50251 8.25422 -13.047
LeftUpLeg  1.4981 1.69506 4.54472
LeftLeg  2.81434 -0.668281 0.476049
LeftFoot  -2.59043 0.472614 -5.96877
LeftToes  4.78685e-008 1.46778e-008 1.34523e-009
